<svg xmlns="http://www.w3.org/2000/svg" width="68.879" height="68.879" viewBox="0 0 68.879 68.879">
  <path id="square-instagram-brands" d="M33.94,57.858a8.082,8.082,0,1,0,8.085,8.083,8.082,8.082,0,0,0-8.085-8.083Zm18.9-6.212a8.182,8.182,0,0,0-4.608-4.608c-3.182-1.256-10.758-.974-14.288-.974s-11.1-.292-14.289.974a8.182,8.182,0,0,0-4.608,4.608c-1.255,3.182-.974,10.765-.974,14.293s-.28,11.1.98,14.294a8.182,8.182,0,0,0,4.608,4.608c3.182,1.256,10.758.974,14.289.974s11.1.292,14.288-.974a8.182,8.182,0,0,0,4.608-4.608c1.265-3.182.974-10.765.974-14.293s.291-11.1-.974-14.293ZM33.94,78.364a12.409,12.409,0,1,1,8.79-3.635A12.424,12.424,0,0,1,33.94,78.364Zm12.936-22.47a1.2,1.2,0,1,1,.006.006ZM60.606,32H7.273A7.273,7.273,0,0,0,0,39.273V92.606a7.273,7.273,0,0,0,7.273,7.273H60.606a7.273,7.273,0,0,0,7.273-7.273V39.273A7.273,7.273,0,0,0,60.607,32ZM58.013,75.94c-.2,3.883-1.082,7.324-3.917,10.152s-6.273,3.732-10.152,3.917c-4,.226-16,.226-20,0-3.883-.2-7.312-1.083-10.152-3.917S10.061,79.815,9.876,75.94c-.226-4-.226-16,0-20,.2-3.883,1.071-7.324,3.917-10.152s6.283-3.721,10.152-3.906c4-.226,16-.226,20,0,3.883.2,7.323,1.083,10.152,3.917s3.732,6.276,3.917,10.159C58.238,59.946,58.238,71.934,58.013,75.94Z" transform="translate(0.5 -31.5)" fill="#fafaff" stroke="#707070" stroke-width="1"/>
</svg>
