<svg xmlns="http://www.w3.org/2000/svg" width="40.5" height="36" viewBox="0 0 40.5 36">
  <path id="Icon_material-account-circle" data-name="Icon material-account-circle" d="M23.25,3C12.072,3,3,11.064,3,21s9.072,18,20.25,18S43.5,30.936,43.5,21,34.428,3,23.25,3Zm0,5.4c3.361,0,6.075,2.412,6.075,5.4s-2.713,5.4-6.075,5.4-6.075-2.412-6.075-5.4S19.889,8.4,23.25,8.4Zm0,25.56a15.128,15.128,0,0,1-12.15-5.8c.061-3.582,8.1-5.544,12.15-5.544,4.03,0,12.089,1.962,12.15,5.544a15.128,15.128,0,0,1-12.15,5.8Z" transform="translate(-3 -3)" fill="#fafaff"/>
</svg>
