<svg xmlns="http://www.w3.org/2000/svg" width="79.241" height="64.006" viewBox="0 0 79.241 64.006">
  <path id="twitter-brands" d="M69.6,63.784c.049.689.049,1.378.049,2.067,0,21.018-16,45.236-45.236,45.236A44.93,44.93,0,0,1,0,103.951a32.893,32.893,0,0,0,3.839.2,31.841,31.841,0,0,0,19.739-6.793A15.927,15.927,0,0,1,8.712,86.329a20.049,20.049,0,0,0,3,.246,16.816,16.816,0,0,0,4.184-.541A15.9,15.9,0,0,1,3.15,70.429v-.2a16.012,16.012,0,0,0,7.187,2.018A15.923,15.923,0,0,1,5.414,50.986,45.193,45.193,0,0,0,38.2,67.624a17.948,17.948,0,0,1-.394-3.642A15.914,15.914,0,0,1,65.319,53.1,31.3,31.3,0,0,0,75.41,49.263a15.856,15.856,0,0,1-6.99,8.762,31.873,31.873,0,0,0,9.156-2.461A34.177,34.177,0,0,1,69.6,63.784Z" transform="translate(0.271 -47.582)" fill="#fafaff" stroke="#707070" stroke-width="1"/>
</svg>
