<svg xmlns="http://www.w3.org/2000/svg" width="80" height="80" viewBox="0 0 80 80">
  <path id="square-whatsapp-brands" d="M40,48.214A23.533,23.533,0,0,0,20.054,84.268l.554.893-2.375,8.679L27.143,91.5l.857.518A23.474,23.474,0,0,0,39.982,95.3H40A23.354,23.354,0,0,0,56.643,55.125,23.355,23.355,0,0,0,40,48.214ZM53.839,81.857c-.589,1.661-3.411,3.161-4.768,3.357-2.25.339-4,.161-8.482-1.768C33.5,80.375,28.857,73.232,28.5,72.768s-2.893-3.839-2.893-7.321a7.924,7.924,0,0,1,2.482-5.911,2.576,2.576,0,0,1,1.893-.893c.464,0,.946,0,1.357.018.429.018,1.018-.161,1.589,1.214.589,1.411,2,4.893,2.179,5.25a1.25,1.25,0,0,1,.054,1.232c-1.357,2.714-2.8,2.607-2.071,3.857,2.732,4.7,5.464,6.321,9.625,8.411.714.357,1.125.3,1.536-.179.411-.464,1.768-2.071,2.232-2.768.464-.714.946-.589,1.589-.357s4.125,1.946,4.839,2.3,1.179.536,1.357.821A6.283,6.283,0,0,1,53.839,81.857ZM71.429,32H8.571A8.574,8.574,0,0,0,0,40.571v62.857A8.574,8.574,0,0,0,8.571,112H71.429A8.574,8.574,0,0,0,80,103.429V40.571A8.574,8.574,0,0,0,71.429,32ZM39.982,100.071a28.292,28.292,0,0,1-13.536-3.446l-15.018,3.946,4.018-14.679A28.37,28.37,0,1,1,68.571,71.768a28.581,28.581,0,0,1-28.589,28.3Z" transform="translate(0 -32)" fill="#fafaff"/>
</svg>
