<svg xmlns="http://www.w3.org/2000/svg" width="83.748" height="59.182" viewBox="0 0 83.748 59.182">
  <path id="youtube-brands" d="M95.952,73.1a10.4,10.4,0,0,0-7.316-7.363C82.183,64,56.307,64,56.307,64s-25.876,0-32.329,1.74A10.4,10.4,0,0,0,16.662,73.1c-1.729,6.5-1.729,20.046-1.729,20.046s0,13.551,1.729,20.046a10.243,10.243,0,0,0,7.316,7.246c6.453,1.74,32.329,1.74,32.329,1.74s25.876,0,32.329-1.74a10.243,10.243,0,0,0,7.316-7.246c1.729-6.5,1.729-20.046,1.729-20.046s0-13.551-1.729-20.046Zm-48.108,32.35V80.846l21.627,12.3Z" transform="translate(-14.433 -63.5)" fill="#fafaff" stroke="#707070" stroke-width="1"/>
</svg>
