<?xml version="1.0" encoding="utf-8"?>
<!-- Generator: Adobe Illustrator 16.0.3, SVG Export Plug-In . SVG Version: 6.00 Build 0)  -->
<!DOCTYPE svg PUBLIC "-//W3C//DTD SVG 1.1//EN" "http://www.w3.org/Graphics/SVG/1.1/DTD/svg11.dtd">
<svg version="1.1" id="Capa_1" xmlns="http://www.w3.org/2000/svg" xmlns:xlink="http://www.w3.org/1999/xlink" x="0px" y="0px"
	 width="300px" height="300px" viewBox="0 0 300 300" enable-background="new 0 0 300 300" xml:space="preserve">
<g>
	<path fill="#F39E6E" d="M99.67,144.938c0.53-0.269,5.083-2.599,7.918-3.746c0,0-2.608-4.078-8.725-3.367
		c0,0-2.723,2.481-4.24,5.896C94.618,143.733,99.638,144.895,99.67,144.938z"/>
	<path fill="#FFBC95" d="M99.521,140.937c0.954-1.025,1.866-1.996,2.709-3.006c-0.978-0.188-2.092-0.254-3.366-0.106
		c0,0-2.589,2.365-4.125,5.651C96.542,142.852,98.321,142.226,99.521,140.937z"/>
	<path fill="#483634" d="M131.56,254.545c0.083-0.314,0.129-0.64,0.129-0.975c0-2.5-2.416-4.525-5.396-4.525
		c-2.98,0-5.396,2.025-5.396,4.525c0,0.335,0.047,0.66,0.129,0.975H131.56z"/>
	<path fill="#483634" d="M147.489,254.545c0.082-0.314,0.129-0.64,0.129-0.975c0-2.5-2.416-4.525-5.396-4.525
		c-2.98,0-5.396,2.025-5.396,4.525c0,0.335,0.046,0.66,0.129,0.975H147.489z"/>
	<g>
		<polygon fill="#BE4C1B" points="85.776,157.117 98.864,256.039 109.295,256.039 109.295,252.15 157.662,252.15 157.662,256.039 
			169.849,256.039 183.363,156.363 		"/>
		<path opacity="0.75" fill="#C2C2C2" d="M175.949,191.99l1.558-11.488c-0.154,0.086-0.31,0.174-0.464,0.258
			c-4.021,2.197-65.85,29.917-80.299,37.043l0.683,5.162C109.887,217.314,171.755,194.102,175.949,191.99z"/>
		<path opacity="0.75" fill="#C2C2C2" d="M173.683,208.709l1.173-8.65c-3.221,1.58-63.932,23.465-76.555,29.51l0.978,7.393
			C103.67,235.568,167.93,210.113,173.683,208.709z"/>
		<path opacity="0.65" fill="#B07766" d="M102.347,188.775c9.206-3.977,18.908-7.108,28.669-9.393
			c15.791-3.695,31.471-4.123,47.283-2.677l2.631-19.396l-92.719,0.717l4.683,35.394C95.952,191.699,99.104,190.176,102.347,188.775
			z"/>
		<polygon fill="#DD6934" points="76.957,151.356 79.09,160.158 190.761,160.158 192.752,150.628 		"/>
		<path opacity="0.65" fill="#C4998C" d="M100.133,158.275c0.613-0.074,4.087-1.902,4.617-2.213
			c2.724-1.594,11.069-1.572,16.199-1.396c7.54,0.257,38.801-0.396,41.412-0.357c3.341,0.049,2.886,3.225,6.546,3.223
			c3.672-0.002,4.402-0.455,6.563-2.688c1.133-1.172,1.756-2.031,2.513-4.123l-85.812,0.54c0.353,2.242,1.753,5.077,3.752,6.011
			C97.141,157.841,98.755,158.439,100.133,158.275z"/>
	</g>
	<path fill="#483634" d="M117.425,80.192c1.163,0.959,1.846,2.323,2.966,3.292c1.979,1.708,4.176,2.62,6.431,3.513
		c-0.081-0.39-0.184-0.784-0.315-1.185c-0.995-3.023-6.154-14.924-7.222-17.572c-1.073-2.661-0.848-10.014-3.422-9.296
		c-2.616,0.729-8.701,3.345,0.709,20.653C116.861,79.771,117.146,79.961,117.425,80.192z"/>
	<path opacity="0.55" fill="#594947" d="M117.425,80.192c1.163,0.959,1.846,2.323,2.966,3.292c1.979,1.708,4.176,2.62,6.431,3.513
		c-0.081-0.39-0.184-0.784-0.315-1.185c-0.995-3.023-6.154-14.924-7.222-17.572c-1.073-2.661-0.848-10.014-3.422-9.296
		c-2.616,0.729-8.701,3.345,0.709,20.653C116.861,79.771,117.146,79.961,117.425,80.192z"/>
	<path fill="#FFBC95" d="M132.551,89.227c0,0,4.417,11.475,6.967,12.75c0,0-3.397,9.224-7.131,9.033
		c-2.24-0.115-5.048-7.591-7.301-8.581c0,0,2.094-7.342,0-15.188L132.551,89.227z"/>
	<path opacity="0.85" fill="#EEBFA7" d="M131.44,100.163c-2.34-0.405-3.84-0.769-5.569-2.387c0.262-2.816,0.262-6.613-0.785-10.536
		l7.466,1.986c0,0,2.41,6.153,4.767,10.161C135.388,100.021,132.841,100.405,131.44,100.163z"/>
	
		<linearGradient id="SVGID_1_" gradientUnits="userSpaceOnUse" x1="501.6533" y1="77.3594" x2="508.1593" y2="77.1708" gradientTransform="matrix(-1 0 0 1 622.6152 0)">
		<stop  offset="0.123" style="stop-color:#FFBC95"/>
		<stop  offset="1" style="stop-color:#FFAF81"/>
	</linearGradient>
	<path fill="url(#SVGID_1_)" d="M113.907,76.939c1.024-2.31,4.063-2.238,5.631-1.472c-1.125-2.633-2.144-8.247-1.35-11.551
		c0.956-3.978,22.208-8.386,21.919-1.989c-0.049,1.098,0.751,6.672,1.434,8.79c0.683,2.117,8.865,8.735,8.865,8.735
		c-1.707,1.28-6.535,1.678-6.535,1.678c1.275,7.271,6.615,13.113,7.252,15.422c0.637,2.31-18.195-1.992-21.599-3.293
		c-2.07-0.792-4.009-3.843-6.309-9.701c0,0-2.48,0.091-4.841-0.43C116.417,82.695,112.314,80.533,113.907,76.939z"/>
	<path opacity="0.85" fill="#EEBFA7" d="M121.262,69.28c4.586-0.215,8.564-1.958,13.088-2.639c2.131-0.321,4.199-0.36,6.272-0.254
		c-0.318-1.959-0.541-3.865-0.514-4.459c0.289-6.397-20.963-1.989-21.919,1.989c-0.393,1.636-0.341,3.837-0.052,5.963
		C119.088,69.551,120.124,69.333,121.262,69.28z"/>
	<g>
		<path fill="#DD6945" d="M145.087,85.384c-0.202-0.549-0.551-1.567-0.715-2.14c-1.494,0.725-3.624,1.27-5.387,1.071
			c-2.189-0.247-3.796-0.805-5.861-2.325c1.04,2.678,3.864,3.947,5.981,4.26C141.117,86.547,143.29,86.131,145.087,85.384z"/>
	</g>
	<path fill="#E58C6D" d="M115.972,78.393c0,0,0.865-1.519,2.128-0.818c1.263,0.701,3.107,4.283,0.444,4.09
		c0,0-1.867-0.342-1.389-1.732s1.548-0.663,1.548-0.663S117.702,77.419,115.972,78.393z"/>
	<path fill="#483634" d="M143.332,65.14c0,0-5.229,1.074-6.327,0.463c-1.098-0.611-2.074-3.448-1.677-3.648
		c0.404-0.203,7.505,0.683,7.901,1.456C143.616,64.167,143.761,64.771,143.332,65.14z"/>
	<path fill="#483634" d="M126.781,68.603c0,0-0.372-1.356-0.228-1.758c0.146-0.408,6.018-4.701,6.494-4.536
		c0.473,0.163,1.735,3.145,0.256,4.132C131.868,67.397,126.916,69.174,126.781,68.603z"/>
	
		<radialGradient id="SVGID_2_" cx="493.4316" cy="80.416" r="3.0919" gradientTransform="matrix(-1 0 0 0.9396 622.6152 2.2561)" gradientUnits="userSpaceOnUse">
		<stop  offset="0" style="stop-color:#FF8D88"/>
		<stop  offset="0.8717" style="stop-color:#FFBC95"/>
	</radialGradient>
	<ellipse fill="url(#SVGID_2_)" cx="129.183" cy="77.816" rx="3.203" ry="2.796"/>
	<path fill="#483634" d="M120.227,63.719c3.326-4.205,11.8-6.37,17.116-6.315c-2.187-0.811-4.39-4.028-6.614-4.695
		c-0.505-0.151-0.844,0.498-1.185,0.237c-2.772-2.114-7.54-1.896-12.978,1.188c-1.614,0.916-3.999,3.27-4.852,6.352l8.135,3.373
		C119.849,63.858,119.992,63.804,120.227,63.719z"/>
	<g>
		
			<ellipse transform="matrix(0.9409 -0.3386 0.3386 0.9409 -16.8336 49.2962)" fill="#FFFFFF" cx="132.877" cy="72.897" rx="2.698" ry="3.663"/>
		<path fill="#483634" d="M133.563,76.457c0.916-0.755,1.125-2.147,0.366-4.093c-0.63-1.616-2.093-2.242-2.971-2.483
			c-0.885,0.805-1.18,2.377-0.621,3.93C130.935,75.469,132.296,76.542,133.563,76.457z"/>
		<path fill="#F1A072" d="M132.468,72.663c1.128-0.098,2.235-0.335,3.353-0.517c-0.026-0.092-0.044-0.185-0.077-0.277
			c-0.77-2.14-2.672-3.416-4.249-2.848c-1.325,0.477-1.976,2.104-1.698,3.882C130.62,72.754,131.436,72.753,132.468,72.663z"/>
		<path fill="#483634" d="M132.876,72.174c0,0-3.784,0.533-3.908,0.729s-0.071,0.711,0.302,0.694
			c0.374-0.018,7.102-1.13,7.249-1.298c0.202-0.231,0.006-0.889-0.278-0.8C135.957,71.587,132.876,72.174,132.876,72.174z"/>
		<ellipse fill="#FFFFFF" cx="133.446" cy="73.715" rx="0.436" ry="0.427"/>
	</g>
	<g>
		
			<ellipse transform="matrix(0.9409 -0.3386 0.3386 0.9409 -16.1413 51.2654)" fill="#FFFFFF" cx="138.88" cy="71.901" rx="2.698" ry="3.663"/>
		<path fill="#483634" d="M139.567,75.461c0.916-0.755,1.125-2.147,0.366-4.094c-0.63-1.616-2.093-2.242-2.971-2.483
			c-0.885,0.806-1.18,2.377-0.621,3.93C136.938,74.474,138.299,75.546,139.567,75.461z"/>
		<path fill="#F1A072" d="M138.472,71.667c1.128-0.098,2.234-0.335,3.352-0.518c-0.026-0.092-0.044-0.184-0.077-0.276
			c-0.77-2.141-2.672-3.416-4.249-2.848c-1.325,0.477-1.976,2.104-1.697,3.881C136.623,71.758,137.44,71.757,138.472,71.667z"/>
		<path fill="#483634" d="M138.88,71.178c0,0-3.784,0.533-3.908,0.729c-0.125,0.196-0.071,0.712,0.302,0.694
			c0.373-0.018,7.102-1.13,7.249-1.298c0.202-0.231,0.006-0.889-0.278-0.8C141.96,70.591,138.88,71.178,138.88,71.178z"/>
		<ellipse fill="#FFFFFF" cx="139.421" cy="72.601" rx="0.436" ry="0.427"/>
	</g>
	<path fill="#483634" d="M146.754,88.939c0,0-2.876,0.388-5.332,0.255c-2.517,0.221-4.855,0.252-5.366,0.169
		c-1.168-0.19-4.333-5.026-4.38-6.497c-0.023-0.729,0.535-1.484,1.333-1.304c0.811,0.183,3.097,1.444,4.049,1.636
		c3.667,0.74,6.551-0.008,8.535-0.427c-0.194-0.63-0.533-1.992-0.533-1.992c-3.46,1.069-12.306-1.233-12.306-1.233
		c-0.854-0.089-3.158,1.695-4.053,2.016c-1.205,0.43-4.663-5.451-4.663-5.451c1.047-3.084,0.802-5.218,0.502-6.214
		c-1.005-3.341,1.979-7.595,1.979-7.595l-10.312-3.135c-3.141-1.411,0.637-1.404,0.152,2.646c-0.485,4.05-1.413,6.521,2.499,13.24
		l3.523,7.67c3.395,8.085,5.889,10.364,7.755,11.519c1.866,1.155,19.074,4.705,21.213,3.807
		C153.492,97.152,146.754,88.939,146.754,88.939z"/>
	<path opacity="0.55" fill="#594947" d="M116.361,61.814c-0.236,1.976-0.575,3.578-0.409,5.479c2.558-0.737,5.557-0.652,8.506-0.155
		c0.458-2.541,2.062-4.834,2.062-4.834l-10.312-3.135c-0.157-0.07-0.284-0.134-0.407-0.197
		C116.188,59.514,116.528,60.42,116.361,61.814z"/>
	<path opacity="0.55" fill="#594947" d="M147.302,90.151c0.769,2.127,0.667,3.023,0.031,3.66c-2.054,2.054-13.892-3.03-15.145-3.693
		c-2.27-1.201-7.103-4.766-7.103-4.766c2.598,5.585,4.566,7.346,6.08,8.282c1.695,1.049,17.326,4.274,19.27,3.458
		C151.859,96.494,148.956,92.333,147.302,90.151z"/>
	<linearGradient id="SVGID_3_" gradientUnits="userSpaceOnUse" x1="135.2075" y1="64.3931" x2="124.8705" y2="57.6598">
		<stop  offset="0.0535" style="stop-color:#FF3E4A"/>
		<stop  offset="1" style="stop-color:#DB2936"/>
	</linearGradient>
	<path fill="url(#SVGID_3_)" d="M116.361,63.141c0,0,6.165,3.308,7.919,2.65s9.294-5.59,13.135-4.926s5.88,0.996,6.686,1.896
		c0,0,0.949-3.177-3.367-5.785c-4.315-2.608-6.164-2.997-10.242-1.19s-9.009,5.553-10.195,6.217
		C119.111,62.667,117.594,63.188,116.361,63.141z"/>
	<path fill="#FF3E4A" d="M111.501,66.199l-1.695-5.331c0,0,11.676-4.604,14.711-8.208c3.035-3.604,7.672-7.397,10.949-5.548
		c3.277,1.85,4.233,3.156,4.542,3.394c0,0,1.077,6.136,1.979,7.357c0,0-6.748-3.191-12.252-0.811
		C127.287,58.112,114.908,66.047,111.501,66.199z"/>
	<path opacity="0.75" fill="#FF7977" d="M131.37,56.224c4.645-1.902,10.026,0.644,10.026,0.644
		c-0.766-1.037-1.455-6.146-1.455-6.146c-0.262-0.201-1.074-1.311-3.855-2.881c-2.312-1.305-5.42,0.702-7.884,3.173
		C129.336,52.701,130.386,54.454,131.37,56.224z"/>
	<path opacity="0.65" fill="#C93E4A" d="M122.674,59.397c-1.528-0.199-3.602-0.438-5.192-1.272
		c-3.211,1.639-6.391,2.894-6.391,2.894l1.425,4.484c2.096-0.094,8.225-3.687,12.174-5.96
		C124.021,59.53,123.349,59.485,122.674,59.397z"/>
	<path fill="#FF3E4A" d="M119.988,151.086c0,0-8.606-36.639-13.728-42.234c0,0,18.688-8.009,19.444-9.647
		c0,0,4.409,10.347,7.193,11.77c0,0,4.943-9.354,4.517-11.416c0,0,17.569,7.966,19.703,8.18c0,0-8.559,14.724-9.697,43.175
		L119.988,151.086z"/>
	<path fill="#E02C39" d="M132.948,110.879c1.613,0.119,4.491-0.926,7.12-0.246c2.865,0.741,5.483,3.221,7.12,3.577
		c0,0-1.266-8.749-2.678-11.495c-0.039-0.076-2.326-0.965-2.361-1.04c-2.732-1.21-4.734-2.118-4.734-2.118
		C137.817,101.504,133.443,109.934,132.948,110.879z"/>
	<path fill="#E02C39" d="M125.705,99.205c-0.154,0.333-1.058,0.933-2.387,1.672c-0.565,0.589-2.511,1.164-3.212,1.667
		c-1.103,2.897-2.369,11.373-2.529,12.759c0.157-0.03,0.331-0.103,0.528-0.24c1.781-1.234,3.473-2.63,5.573-3.304
		c2.889-0.926,5.96-1.102,9.036-0.896C129.924,109.102,125.705,99.205,125.705,99.205z"/>
	<path fill="#E02C39" d="M151.139,116.014c-2.662,2.719-3.401,6.415-5.265,9.637c-3.341,5.776-6.854,11.776-14.333,11.47
		c-7.065-0.29-12.097-3.207-14.001-10.155c-1.705-6.22-5.867-11.456-10.066-16.333c5.157,9.142,12.515,40.453,12.515,40.453
		l27.433-0.173c0.718-17.949,4.388-30.428,7-37.2C153.19,114.328,152.057,115.077,151.139,116.014z"/>
	<g>
		<path fill="#FFE9E2" d="M125.871,97.776c0,0-4.255,3.542-4.602,3.952c-0.346,0.41-1.778,6.473-1.6,10.812l5.228-3.734l8.001,2.169
			C132.898,110.974,126.454,100.546,125.871,97.776z"/>
		<path fill="#E3CED1" d="M125.871,97.776c0,0-4.255,3.542-4.602,3.952c-0.346,0.41-1.778,6.473-1.6,10.812l5.228-3.734
			C124.896,108.805,124.528,102.783,125.871,97.776z"/>
		<path fill="#E3CED1" d="M124.508,104.217c0.094-1.536,0.303-3.324,0.747-4.979c0,0-3.413,2.84-3.69,3.168
			c-0.183,0.216-0.739,2.391-1.06,4.842C121.547,105.892,122.936,104.801,124.508,104.217z"/>
	</g>
	<g>
		<path fill="#FFE9E2" d="M136.953,98.633c0,0,5.681,2.685,6.028,3.094c0.346,0.41,2.284,5.868,2.106,10.207l-5.349-3.556
			l-6.84,2.596C132.898,110.974,136.369,101.404,136.953,98.633z"/>
		<path fill="#E3CED1" d="M136.953,98.633c0,0,5.681,2.685,6.028,3.094c0.346,0.41,2.284,5.868,2.106,10.207l-5.349-3.556
			C139.738,108.378,138.294,103.64,136.953,98.633z"/>
		<path fill="#E3CED1" d="M144.232,107.347c-0.467-2.616-1.313-4.895-1.517-5.137c-0.3-0.354-5.21-2.674-5.21-2.674
			c0.464,1.733,0.942,3.424,1.349,4.834C141.5,104.167,143.904,106.869,144.232,107.347z"/>
	</g>
	<path fill="#FF3E4A" d="M106.261,108.852c0,0-5.026,18.304-7.397,29.305c0,0,5.5-0.379,8.725,3.035c0,0,5.375-11.949,5.959-12.897
		C113.547,128.294,113.658,115.585,106.261,108.852z"/>
	<path fill="#E02C39" d="M110.997,115.791c0.242,1.667,0.367,3.267,0.462,4.577c0.276,3.812-0.672,6.787-2.458,10.15
		c-1.557,2.932-2.278,6.125-3.225,9.244c0.644,0.382,1.263,0.847,1.813,1.43c0,0,5.374-11.949,5.959-12.897
		C113.547,128.294,113.6,121.908,110.997,115.791z"/>
	<path fill="#FF3E4A" d="M157.104,107.784c0,0,9.069,19.419,13.835,29.614c0,0-7.207-1.518-10.189,2.207
		c0,0-8.605-14.582-9.388-15.375C151.362,124.229,151.396,115.999,157.104,107.784z"/>
	<path fill="#E02C39" d="M159.074,131.327c-1.119-1.978-2.139-3.956-2.975-6.006c-0.372-0.742-0.725-1.496-1.041-2.273
		c-0.922-2.263-1.584-5.031-1.798-7.854c-1.881,5.122-1.898,9.035-1.898,9.035c0.782,0.794,9.388,15.375,9.388,15.375
		c0.645-0.805,1.487-1.361,2.411-1.742C161.523,135.942,160.402,133.674,159.074,131.327z"/>
	<path fill="#FFBC95" d="M97.441,154.469c0,0,0.363,0.172,0.888,0.396C97.938,154.703,97.61,154.564,97.441,154.469z"/>
	<path fill="#F39E6E" d="M174.826,143.482c-1.557-3.126-4.053-6.116-4.053-6.116c-6.994-2.884-10.023,2.238-10.023,2.238
		c2.383,1.262,8.104,3.152,9.953,5.001C171.952,143.535,173.365,143.428,174.826,143.482z"/>
	<path fill="#FFBC95" d="M167.859,138.751c1.721,1.19,3.775,2.94,5.989,2.965c-1.446-2.398-3.075-4.35-3.075-4.35
		c-2.711-1.118-4.818-1.028-6.392-0.505C165.523,137.322,166.664,137.924,167.859,138.751z"/>
	<g>
		<path fill="#F6F6F6" d="M163.312,141.486c-1.483-0.972-24.839-0.945-27.082-0.941c-2.244-0.004-25.599-0.031-27.083,0.941
			c-1.559,1.021-11.8,9.894-8.387,9.894h35.469h35.469C175.111,151.38,164.87,142.506,163.312,141.486z"/>
		<path opacity="0.32" fill="#D1D1D1" d="M159.338,151.229c-7.176-0.57-14.009-2.418-21.115-3.25
			c-7.623-0.893-15.246-2.396-22.516-4.343c-2.288-0.613-4.237-1.33-5.808-2.361c-0.368,0.064-0.635,0.134-0.752,0.211
			c-1.559,1.021-11.8,9.894-8.387,9.894h60.685C160.741,151.332,160.036,151.285,159.338,151.229z"/>
		<path fill="#C1C1C1" d="M163.312,141.486c-1.483-0.972-24.839-0.945-27.082-0.941c-2.244-0.004-25.599-0.031-27.083,0.941
			c-1.559,1.021-11.8,9.894-8.387,9.894h3.935c-3.035,0,5.508-6.927,6.862-7.743c1.294-0.781,22.624-0.76,24.673-0.756
			c2.048-0.004,23.378-0.025,24.673,0.756c1.354,0.816,9.896,7.743,6.861,7.743h3.935
			C175.111,151.38,164.87,142.506,163.312,141.486z"/>
		<path opacity="0.65" fill="#B3B3B3" d="M142.517,149.662c0,0-0.011-0.014-0.029-0.04l0-0.002
			c-0.047-0.071-0.101-0.153-0.153-0.234c-0.208-0.347-0.516-0.994-0.499-1.783l0,0c0.001-0.058-0.004-0.112,0-0.171
			c0.053-0.633-1.356-1.979-2.923-3.15c-0.392-0.293-0.793-0.575-1.185-0.833c-1.174-0.772-2.252-1.324-2.686-1.28
			c-0.542,0.055-1.165,0.265-1.68,0.473c0,0-0.001,0-0.001,0c-0.015,0.005-0.026,0.011-0.041,0.017
			c-0.111,0.045-0.212,0.088-0.31,0.132c-0.026,0.011-0.053,0.022-0.077,0.033c-0.108,0.048-0.202,0.092-0.285,0.131
			c-0.009,0.004-0.019,0.009-0.028,0.013c-0.178,0.086-0.289,0.144-0.289,0.144s-0.06,0.027-0.147,0.066
			c-0.345,0.154-1.312,0.578-2.503,1.032c-0.134-0.183-0.175-0.515-0.459-0.638c-0.375-0.163-1.032-0.191-1.456-0.144
			c-0.336,0.037-0.624,0.126-0.885,0.25c-0.001,0-0.003,0-0.004-0.001c-0.011,0.005-0.019,0.014-0.03,0.019
			c-0.202,0.1-0.389,0.219-0.561,0.36c-0.411,0.337-0.936,0.481-1.518,0.274c-0.515-0.183-0.913-0.184-1.38,0.081
			c-0.473,0.269-0.896,0.333-1.51,0.27c-0.491-0.051-0.964-0.168-1.469-0.215c-0.738-0.069-1.136,0.035-1.699,0.358
			s-1.041,0.726-1.595,1.051c-0.486,0.286-1.042,0.286-1.623,0.283c-0.85-0.004-1.395,0.184-1.98,0.622
			c-0.239,0.179-0.33,0.371-0.455,0.583c-0.68,0.35-1.312,0.765-1.879,1.247c-0.138,0.027-0.274,0.06-0.394,0.113
			c-0.089,0.04-0.142,0.083-0.194,0.146c-0.047,0.058-0.115,0.104-0.16,0.163c-0.082,0.107-0.142,0.279-0.096,0.417
			c-0.114,0.132-0.238,0.255-0.342,0.396c0,0-0.086,0.122-0.156,0.263l0,0c0,0-0.542,1.026,0.15,0.847
			c0.484-0.125,3.36-1.328,5.884-1.846c0.336,0.147,0.603,0.354,0.717,0.636c0.188,0.462-0.25,0.897-0.523,1.33l0,0l0,0
			c-0.047,0.075-0.088,0.15-0.121,0.227c-0.005,0.011-0.011,0.022-0.016,0.033c-0.029,0.073-0.047,0.146-0.055,0.22
			c-0.001,0.014-0.002,0.027-0.002,0.041c-0.002,0.073,0.009,0.147,0.038,0.222c0.004,0.012,0.012,0.022,0.017,0.033
			c0.037,0.078,0.087,0.156,0.169,0.235c0.177,0.171,0.458,0.241,0.719,0.215s0.501-0.15,0.594-0.368
			c0.025-0.058,0.035-0.113,0.036-0.166c0-0.018-0.005-0.035-0.007-0.053c-0.004-0.035-0.008-0.068-0.02-0.102
			c-0.007-0.02-0.018-0.039-0.027-0.06c-0.014-0.029-0.028-0.059-0.046-0.087c-0.013-0.021-0.027-0.041-0.042-0.062
			c-0.021-0.029-0.042-0.059-0.065-0.087c-0.004-0.006-0.007-0.01-0.011-0.016h0c-0.122-0.151-0.256-0.303-0.301-0.475
			c-0.099-0.385,0.071-0.877,0.618-1.005c0.127-0.03,0.247-0.041,0.364-0.042c0.009,0.001,0.02-0.003,0.029-0.002
			c0.004,0,0.008,0.001,0.012,0.001c0.171,0.001,0.335,0.027,0.501,0.058c0.187,0.036,0.375,0.077,0.575,0.105
			c0.155,0.022,0.318,0.033,0.484,0.037c0.048,0.001,0.097-0.002,0.146-0.002c0.122,0,0.243-0.001,0.367-0.006
			c0.038-0.002,0.076-0.005,0.114-0.007c0.234-0.013,0.464-0.028,0.688-0.042c0.05-0.003,0.102-0.006,0.152-0.009
			c0.672,0.307,1.475,0.599,2.567,0.766c-0.004,0.004-0.006,0.01-0.011,0.015c-0.121,0.113-0.272,0.215-0.407,0.321v-0.001
			c-0.001,0.001-0.002,0.002-0.003,0.003c-0.059,0.046-0.114,0.094-0.163,0.143c-0.007,0.006-0.011,0.014-0.018,0.021
			c-0.037,0.039-0.068,0.081-0.093,0.125c-0.009,0.016-0.016,0.032-0.022,0.049c-0.017,0.039-0.026,0.08-0.029,0.123
			c-0.001,0.018-0.004,0.035-0.003,0.055c0.004,0.061,0.02,0.125,0.058,0.197c0.166,0.309,0.751,0.432,1.214,0.35
			c0.186-0.033,0.352-0.1,0.463-0.199c0.056-0.05,0.098-0.108,0.123-0.176c0.018-0.049,0.018-0.098,0.009-0.146
			c-0.003-0.017-0.012-0.033-0.018-0.05c-0.011-0.032-0.022-0.063-0.042-0.095c-0.012-0.021-0.027-0.041-0.042-0.062
			c-0.021-0.028-0.041-0.058-0.065-0.085c-0.021-0.025-0.042-0.051-0.065-0.076c-0.127-0.141-0.266-0.285-0.324-0.436
			c0.741,0.075,1.62,0.085,2.654,0.017c0.259,0.253,0.522,0.533,0.348,0.81c-0.049,0.079-0.129,0.171-0.214,0.27
			c-0.035,0.04-0.07,0.082-0.105,0.123c-0.014,0.017-0.026,0.032-0.04,0.048c-0.036,0.044-0.07,0.089-0.102,0.133
			c-0.005,0.007-0.01,0.013-0.015,0.02c-0.035,0.05-0.064,0.099-0.088,0.147c-0.006,0.014-0.01,0.025-0.015,0.037
			c-0.016,0.037-0.027,0.072-0.035,0.107c-0.003,0.016-0.004,0.031-0.006,0.047c-0.002,0.033,0.001,0.064,0.009,0.096
			c0.003,0.014,0.005,0.027,0.01,0.041c0.018,0.043,0.044,0.084,0.088,0.122c0.296,0.257,0.963,0.243,1.321,0.058
			c0.067-0.035,0.108-0.084,0.138-0.139c0.008-0.016,0.015-0.031,0.021-0.047c0.017-0.049,0.027-0.1,0.027-0.156
			c0-0.012,0.003-0.023,0.002-0.036c-0.003-0.069-0.016-0.142-0.033-0.215c-0.005-0.024-0.012-0.046-0.018-0.07
			c-0.017-0.063-0.034-0.124-0.052-0.185c0-0.001-0.001-0.003-0.001-0.004l0,0c-0.039-0.129-0.074-0.25-0.076-0.34
			c-0.007-0.32,0.163-0.461,0.472-0.585c0.126-0.051,0.268-0.099,0.441-0.154c0.242-0.078,0.505-0.108,0.772-0.136
			s0.538-0.053,0.795-0.118c0.529-0.134,0.932-0.409,1.472-0.504c0.512-0.09,1.01-0.262,1.512-0.338
			c0.098-0.015,0.207-0.017,0.314-0.011c0.009,0,0.019,0,0.028,0.001c0.104,0.008,0.205,0.027,0.298,0.054
			c0.253,0.076,0.437,0.225,0.362,0.459c-0.022,0.069-0.088,0.147-0.163,0.229c-0.04,0.043-0.082,0.087-0.124,0.131
			c-0.006,0.006-0.013,0.013-0.019,0.02c-0.039,0.042-0.075,0.082-0.105,0.122c-0.001,0.002-0.003,0.004-0.005,0.006
			c-0.029,0.039-0.051,0.076-0.064,0.112c-0.003,0.009-0.003,0.017-0.005,0.025c-0.006,0.026-0.006,0.051,0.001,0.074
			c0.003,0.01,0.009,0.02,0.015,0.029c0.013,0.021,0.036,0.039,0.065,0.057c0.013,0.008,0.023,0.017,0.04,0.023
			c0.052,0.022,0.117,0.042,0.208,0.057c0.001,0,0.001,0,0.002,0c0.135,0.021,0.269,0.021,0.391,0
			c0.122-0.02,0.232-0.061,0.319-0.116c0.087-0.056,0.151-0.129,0.181-0.215c0.03-0.087,0.025-0.188-0.025-0.299
			c-0.006-0.014-0.013-0.028-0.02-0.042h0c-0.153-0.33-0.332-0.604-0.06-0.935c0.914-0.006,1.881,0.094,2.72,0.421
			c1.818,0.709,3.758,0.529,4.668,0.381c0.133-0.362,0.086-0.61,0.078-0.719C142.507,149.664,142.517,149.662,142.517,149.662z"/>
		<g>
			<path fill="#EC9936" d="M142.687,148.568c-0.28-0.45-0.651-1.074-1.005-1.759c-0.654-1.262-5.095-5.569-6.252-5.444
				c-1.156,0.125-2.708,1.009-2.708,1.009s-5.878,2.878-8.171,2.611c-2.293-0.268-11.143-0.741-14.514,4.106
				c0,0-0.542,1.097,0.15,0.906c0.691-0.191,6.262-2.739,8.714-2.137c2.452,0.602,3.49,3.366,12.95,1.146
				c0,0,3.611-1.063,6.093-0.026c1.818,0.759,3.758,0.566,4.668,0.408C142.765,148.944,142.679,148.647,142.687,148.568z"/>
			<path fill="#FAC64C" d="M132.533,141.603c0,0-5.878,2.878-8.171,2.611c-2.293-0.267-10.798-0.251-14.169,4.596
				c0,0-0.6,0.903,0.092,0.712c0.692-0.191,5.976-3.035,8.428-2.433c2.452,0.603,3.49,3.366,12.95,1.146
				c0,0,3.611-1.063,6.093-0.026s4.961,0.404,4.961,0.404s-0.787-1.031-0.681-2.386s-5.638-5.758-6.794-5.633
				C134.085,140.719,132.533,141.603,132.533,141.603z"/>
			<path fill="#F89945" d="M142.036,146.227c0.106-1.355-5.638-5.758-6.794-5.633c-1.157,0.125-2.709,1.009-2.709,1.009
				s-0.079,0.039-0.217,0.104c4.526,3.349,5.44,6.502,5.44,6.502c2.482,1.037,4.961,0.404,4.961,0.404
				S141.93,147.582,142.036,146.227z"/>
			<path fill="#E9822E" d="M142.035,146.41c-0.301,0.287-0.718,0.503-1.198,0.505c-1.498,0.005-3.02-0.788-3.869-1.724
				c-0.79-0.87-1.318-1.893-2.124-2.743c-0.436-0.459-0.885-0.89-1.283-1.35c-0.586,0.253-1.028,0.504-1.028,0.504
				s-0.079,0.039-0.217,0.104c4.526,3.349,5.44,6.502,5.44,6.502c2.482,1.037,4.961,0.404,4.961,0.404
				S142.01,147.672,142.035,146.41z"/>
			<g>
				<path fill="#FBDF6A" d="M136.852,145.831c-0.175-0.094-0.236-0.16-0.261-0.311c-0.023-0.141,0.087-0.297-0.077-0.412
					c0.068-0.337-0.858-0.749-1.23-0.848c-0.526-0.14-0.97-0.035-1.502,0c-0.452,0.029-0.661-0.105-0.635-0.426
					c-0.02-0.003-0.039-0.007-0.058-0.012c0.016-0.012,0.03-0.025,0.042-0.04c-0.011-0.022-0.034-0.021-0.047-0.041
					c0.025-0.117-0.044-0.333-0.175-0.407c-0.093-0.327-0.75-0.479-1.123-0.559c-0.254-0.055-0.57-0.086-0.838-0.081
					c-0.314,0.006-0.506,0.18-0.789,0.215c-0.43,0.054-0.321-0.623-0.736-0.816c-0.375-0.174-1.031-0.205-1.456-0.155
					c-0.614,0.072-1.079,0.32-1.48,0.673c-0.411,0.361-0.936,0.515-1.518,0.293c-0.515-0.195-0.914-0.197-1.38,0.086
					c-0.473,0.288-0.896,0.356-1.51,0.289c-0.491-0.054-0.964-0.18-1.469-0.231c-0.738-0.074-1.136,0.038-1.699,0.384
					c-0.563,0.347-1.041,0.777-1.595,1.125c-0.486,0.306-1.042,0.306-1.623,0.303c-0.85-0.004-1.395,0.197-1.98,0.666
					c-0.27,0.216-0.349,0.447-0.503,0.711c-0.188,0.321-0.18,0.646-0.502,0.903c-0.125,0.123-0.784,0.246-1.155,0.309
					c-0.194,0.033-0.398,0.076-0.568,0.157c-0.089,0.042-0.142,0.089-0.194,0.157c-0.047,0.062-0.115,0.111-0.16,0.174
					c-0.086,0.121-0.155,0.319-0.096,0.469c0.034,0.084,0.176,0.133,0.28,0.159c0.146,0.036,0.306,0.02,0.453-0.002
					c0.278-0.042,0.55-0.119,0.807-0.209c0.677-0.239,1.149-0.521,1.915-0.612c0.993-0.118,2.477,0.114,2.797,0.959
					c0.333,0.878-1.305,1.665-0.493,2.506c0.354,0.365,1.126,0.301,1.313-0.164c0.188-0.466-0.382-0.765-0.483-1.184
					c-0.1-0.412,0.071-0.938,0.617-1.076c0.539-0.135,0.97,0.051,1.481,0.129c0.627,0.095,1.372-0.004,2.012-0.036
					c0.375-0.018,0.753-0.038,1.127-0.068c0.277-0.022,0.644-0.104,0.918-0.049c0.471,0.095,0.763,0.643,0.449,0.957
					c-0.343,0.344-0.94,0.592-0.682,1.109c0.265,0.528,1.605,0.548,1.801-0.027c0.133-0.389-0.573-0.74-0.574-1.161
					c-0.001-0.54,0.806-0.507,1.316-0.458c0.513,0.049,0.988,0.224,1.303,0.553c0.276,0.289,0.6,0.614,0.411,0.936
					c-0.2,0.34-0.895,0.919-0.513,1.273c0.296,0.275,0.964,0.26,1.322,0.063c0.419-0.233,0.016-0.938,0.009-1.275
					c-0.01-0.483,0.316-0.587,0.914-0.791c0.484-0.166,1.053-0.133,1.567-0.272c0.529-0.144,0.932-0.437,1.472-0.54
					c0.512-0.097,1.01-0.281,1.512-0.362c0.456-0.073,1.136,0.09,1.002,0.54c-0.094,0.316-0.959,0.812-0.152,0.947
					c0.539,0.09,1.065-0.198,0.866-0.675c-0.159-0.381-0.379-0.687-0.069-1.067c0.292-0.357,0.712-0.412,1.109-0.647
					c0.248-0.146,0.949-0.731,1.171-0.203c0.08,0.191-0.185,0.351-0.125,0.536c0.066,0.207,0.338,0.18,0.552,0.085
					c0.527-0.232,0.304-0.637,0.186-0.988c-0.06-0.177-0.094-0.382-0.05-0.568c0.046-0.193,0.184-0.342-0.055-0.507
					c-0.171-0.119-0.473-0.122-0.67-0.189c-0.174-0.059-0.33-0.144-0.5-0.218C136.737,145.757,136.976,145.897,136.852,145.831z"/>
				<path opacity="0.55" fill="#ECBC49" d="M126.229,145.417c-1.014-0.7-1.837-1.534-2.761-2.288
					c-0.485,0.415-1.213,0.536-2.166,0.322c-0.619-0.138-1.176-0.227-1.718,0.087c0.115,0.05,0.23,0.101,0.344,0.156
					c2.399,1.162,4.455,2.482,7.399,2.72c0.309,0.025,0.598,0.029,0.88,0.022C127.492,146.167,126.823,145.828,126.229,145.417z"/>
				<path opacity="0.55" fill="#ECBC49" d="M135.107,145.273c-0.707-0.607-1.368-0.486-2.311-0.715
					c-0.454-0.111-0.775-0.267-1.05-0.569c-0.596-0.654-0.773-0.913-1.865-0.727c-0.532,0.09-1.078-0.053-1.511-0.277
					c-0.288-0.148-0.397-0.493-0.688-0.617c-0.193-0.083-0.396-0.132-0.604-0.16c-0.215,0.11-0.41,0.246-0.591,0.405
					c-0.072,0.063-0.147,0.116-0.226,0.165c0,0.013,0.003,0.026,0.005,0.039c0.354,0.299,0.891,0.573,1.153,0.715
					c0.833,0.453,1.701,0.853,2.625,1.188c1.715,0.623,3.48,0.554,5.294,0.733C135.259,145.397,135.182,145.337,135.107,145.273z"/>
				<path opacity="0.55" fill="#ECBC49" d="M116.691,150.39c-0.19-0.062-0.324-0.155-0.426-0.264
					c-0.211,0.358-0.324,0.715,0.03,1.083c0.354,0.365,1.126,0.301,1.313-0.164c0.105-0.261-0.027-0.469-0.182-0.675
					C117.195,150.447,116.941,150.472,116.691,150.39z"/>
				<path opacity="0.55" fill="#ECBC49" d="M123.915,150.35c-0.242,0.003-0.47-0.126-0.592-0.289
					c-0.249,0.208-0.442,0.431-0.274,0.766c0.265,0.528,1.605,0.548,1.801-0.027c0.076-0.224-0.125-0.435-0.309-0.654
					C124.397,150.285,124.133,150.347,123.915,150.35z"/>
				<path opacity="0.55" fill="#ECBC49" d="M127.698,151.214c-0.251-0.017-0.463-0.138-0.57-0.302
					c-0.268,0.332-0.637,0.75-0.335,1.03c0.296,0.275,0.964,0.26,1.322,0.063c0.299-0.166,0.18-0.571,0.084-0.912
					C128.063,151.178,127.886,151.226,127.698,151.214z"/>
				<path opacity="0.55" fill="#ECBC49" d="M135.285,149.53c-0.18,0.103-0.414,0.139-0.649,0.073
					c-0.066-0.019-0.127-0.048-0.183-0.082c-0.245,0.291-0.651,0.623-0.013,0.729c0.539,0.09,1.065-0.198,0.866-0.675
					C135.298,149.56,135.292,149.545,135.285,149.53z"/>
				<path opacity="0.55" fill="#F2CC49" d="M119.694,148.567c-0.403-0.071-0.799-0.074-1.195-0.082
					c-0.292,0.041-0.541,0.124-0.692,0.277c0.117-0.033,0.229-0.04,0.331-0.025c0.369,0,0.705,0.118,1.086,0.176
					c0.61,0.093,1.329,0.002,1.957-0.032C120.679,148.789,120.196,148.656,119.694,148.567z"/>
				<path opacity="0.55" fill="#ECBC49" d="M117.865,145.244c-0.95,0.447-3.075,0.259-3.613,1.037
					c-0.21,0.304-0.35,0.583-0.587,0.844c0.66-0.026,1.348-0.172,1.993-0.138c0.5,0.027,0.96,0.122,1.438,0.24
					c0.619,0.152,1.176,0.104,1.808,0.155c1.113,0.088,2.142,0.48,3.255,0.529c0.966,0.042,1.774-0.325,2.724-0.339
					c1.274-0.019,2.146,1.468,3.448,1.035c1.138-0.378,2.289-0.826,3.506-1.042c1.157-0.206,2.928,0.248,3.872-0.43
					c0.223-0.16,0.412-0.33,0.616-0.49c-0.741-0.073-1.486-0.093-2.225-0.043c-1.429,0.096-2.639,0.521-4.006,0.787
					c-1.202,0.235-2.468,0.202-3.679,0.005c-2.627-0.426-4.489-1.4-6.687-2.513c-0.322-0.163-0.646-0.305-0.974-0.431
					C118.629,144.741,118.35,145.016,117.865,145.244z"/>
				<path opacity="0.55" fill="#F2CC49" d="M131.504,148.772c-0.848,0.24-2.929,1.234-2.95,1.346
					c0.133-0.06,0.293-0.116,0.483-0.181c0.484-0.166,1.053-0.133,1.567-0.272c0.529-0.144,0.932-0.437,1.472-0.54
					c0.512-0.097,1.01-0.281,1.512-0.362c0.208-0.033,0.461-0.017,0.664,0.052c0.001-0.006,0.002-0.013,0.003-0.019
					C134.262,148.736,132.415,148.514,131.504,148.772z"/>
				<path opacity="0.55" fill="#ECBC49" d="M137.649,147.713c-0.043-0.003-0.085-0.01-0.125-0.018
					c0.035,0.174-0.188,0.326-0.133,0.499c0.066,0.207,0.338,0.18,0.552,0.085c0.404-0.178,0.367-0.458,0.274-0.737
					C138.073,147.657,137.866,147.727,137.649,147.713z"/>
				<path fill="#14B661" d="M115.106,146.574c0,0-1.641,0.106-1.976,0.477c-0.334,0.37,0.129,0.807,1.017,0.494
					C115.035,147.232,115.339,146.554,115.106,146.574z"/>
				<path fill="#14B661" d="M120.257,143.972l-0.042,0.389l1.729,0.352l0.257-0.556
					C122.201,144.156,120.724,143.835,120.257,143.972z"/>
				<path fill="#FF3E4A" d="M127.118,142.922l0.304,0.404l1.39-0.36c0,0-0.11-0.459-0.264-0.537L127.118,142.922z"/>
				<path fill="#14B661" d="M128.324,145.715l-0.05,0.464c0,0,1.79,0.243,1.792,0.22s0.247-0.738,0.247-0.738L128.324,145.715z"/>
				<path fill="#FF3E4A" d="M132.263,143.789l-0.438,0.333c0,0,0.461,0.638,0.77,0.78l0.606-0.344
					C133.201,144.558,132.252,143.894,132.263,143.789z"/>
				<path fill="#FF3E4A" d="M118.835,147.4l-0.058,0.531l1.553,0.212l0.688-0.781C121.019,147.362,119.548,147.34,118.835,147.4z"/>
				<path fill="#14B661" d="M130.242,148.031c0,0-0.719-0.34-1.525-0.241c-0.806,0.099-0.857-0.153-1.099-0.006
					s-0.504,0.846,0.756,0.813c1.26-0.032,0.879-0.321,1.294-0.347C130.084,148.224,130.453,148.172,130.242,148.031z"/>
				<path fill="#14B661" d="M135.125,147.544c0,0,0.6-0.915,1.569-0.983s0.875,0.626,0.104,0.766S134.956,147.758,135.125,147.544z"
					/>
				<path fill="#766974" d="M131.09,144.016c-0.157-0.676-1.258-0.813-1.961-0.788c-0.775,0.027-1.883,0.335-2.065,0.983
					c-0.122,0.432,0.481,0.76,0.946,0.875c0.524,0.128,1.42,0.275,1.936,0.093C130.427,145.018,131.248,144.692,131.09,144.016z"/>
				<path opacity="0.65" fill="#6C5F66" d="M131.09,144.016c-0.157-0.676-1.258-0.813-1.961-0.788
					c-0.775,0.027-1.883,0.335-2.065,0.983c-0.122,0.432,0.481,0.76,0.946,0.875c0.524,0.128,1.42,0.275,1.936,0.093
					C130.428,145.018,131.248,144.692,131.09,144.016z M129.8,144.464c-0.325,0.076-0.586,0.104-1.162,0.087
					c-0.384-0.011-0.754-0.15-0.823-0.432c-0.073-0.298,0.188-0.566,0.562-0.631c0.512-0.089,1.015-0.135,1.539-0.102
					C130.822,143.444,130.669,144.263,129.8,144.464z"/>
				<path fill="#AAA2A9" d="M129.852,143.732c-0.058-0.028-0.123-0.042-0.193-0.045c-0.141-0.007-0.31,0.018-0.443,0.054
					c-0.097,0.026-0.214,0.064-0.257,0.142c-0.037,0.066-0.017,0.134,0.06,0.18c0.104,0.062,0.267,0.065,0.393,0.063
					c0.115-0.001,0.227-0.018,0.333-0.053c0.075-0.025,0.161-0.059,0.212-0.108C129.983,143.939,129.978,143.795,129.852,143.732z"
					/>
				<path fill="#14B661" d="M122.851,144.77c0,0,1.155-0.966,1.963-1.08c0.807-0.114,1.615,0.405,0.952,0.814
					C125.103,144.914,122.486,145.05,122.851,144.77z"/>
				<g>
					<path fill="#D12424" d="M115.818,146.618l0.333,0.55l5.373-1.021l0.104-0.505c0,0-1.125-0.946-2.876-0.719
						C116.998,145.15,115.928,145.87,115.818,146.618z"/>
					<path fill="#EA3333" d="M115.818,146.618l5.809-0.976c0,0-1.125-0.946-2.876-0.719
						C116.998,145.15,115.928,145.87,115.818,146.618z"/>
					<path fill="#C91D1D" d="M117.348,146.039c0.166,0.011,0.679,0.164,0.734,0.16c0.054-0.004-0.357-0.332-0.357-0.332
						s0.462-0.283,1.438-0.221c0,0-0.293,0.26-0.036,0.333c0.257,0.073,0.412-0.316,0.418-0.369
						c0.005-0.047,0.694-0.029,0.956,0.221l1.126-0.189c0,0-1.124-0.946-2.876-0.719c-1.752,0.228-2.822,0.948-2.933,1.695
						l1.143-0.192C117.054,146.279,117.231,146.031,117.348,146.039z"/>
					<path fill="#FF3333" d="M118.179,145.471c0.931-0.176,1.992-0.251,2.7,0.296l0.748-0.125c0,0-1.124-0.946-2.876-0.719
						c-1.752,0.228-2.822,0.948-2.933,1.695l0.543-0.091C116.576,145.875,117.375,145.623,118.179,145.471z"/>
					
						<ellipse transform="matrix(0.998 0.0638 -0.0638 0.998 9.5743 -7.1972)" fill="#FF7E70" cx="117.418" cy="146.233" rx="0.115" ry="0.062"/>
					<path fill="#FF7E70" d="M118.287,145.933c-0.004,0.04-0.062,0.069-0.128,0.065c-0.066-0.004-0.117-0.04-0.113-0.081
						s0.062-0.069,0.129-0.065C118.241,145.856,118.292,145.893,118.287,145.933z"/>
					<path fill="#FF7E70" d="M118.74,145.97c-0.005,0.045-0.066,0.078-0.137,0.073s-0.124-0.044-0.119-0.089
						s0.066-0.078,0.137-0.073C118.691,145.885,118.745,145.925,118.74,145.97z"/>
					
						<ellipse transform="matrix(0.9979 0.0642 -0.0642 0.9979 9.6109 -7.3943)" fill="#FF7E70" cx="119.8" cy="145.77" rx="0.106" ry="0.062"/>
				</g>
				<path fill="#E7D1CA" d="M135.461,146.768l-0.284-0.422l0,0l-0.003-0.004c0,0-1.362-0.009-1.783-0.059l1.519-0.683
					c0,0-1.987-0.413-3.054-0.078c-0.97,0.305-0.865,0.745-0.953,1.074c-0.015,0.055-0.012,0.111,0.006,0.165l-0.304,0.5
					c-0.107,0.177-0.033,0.388,0.176,0.498c0.076,0.04,0.152,0.073,0.211,0.091c0.101,0.033,0.228,0.068,0.38,0.101
					c0.454,0.1,1.125,0.174,1.953,0.057c0.299-0.042,0.562-0.112,0.79-0.198c0.076-0.028,0.149-0.059,0.217-0.091
					c0.207-0.095,0.38-0.202,0.524-0.309c0.048-0.036,0.093-0.071,0.135-0.106C135.327,147.021,135.461,146.768,135.461,146.768
					L135.461,146.768L135.461,146.768z"/>
				<g>
					<path fill="#E65126" d="M130.55,146.813l0.187,0.565c0.045,0.137,0.172,0.247,0.342,0.302c0.404,0.129,1.229,0.314,2.333,0.158
						c1.598-0.226,2.135-1.24,2.135-1.24l-0.287-0.426c0,0-1.362-0.009-1.783-0.059l1.519-0.683c0,0-1.987-0.414-3.054-0.079
						c-0.97,0.305-1.31,0.968-1.397,1.297C130.53,146.703,130.533,146.759,130.55,146.813z"/>
					<path fill="#D93300" d="M135.263,146.175c-0.093,0.294-0.28,0.558-0.639,0.732c-0.583,0.283-1.228,0.474-1.923,0.506
						c-0.847,0.039-1.83-0.064-2.158-0.639c0.002,0.013,0.003,0.025,0.007,0.038l0.187,0.565c0.045,0.137,0.172,0.247,0.342,0.302
						c0.404,0.129,1.229,0.314,2.333,0.158c1.598-0.226,2.135-1.24,2.135-1.24L135.263,146.175z"/>
					<path fill="#EA8D70" d="M131.768,146.303c0.064,0.107-0.036,0.248-0.224,0.314c-0.188,0.066-0.392,0.033-0.456-0.074
						c-0.064-0.107,0.036-0.248,0.224-0.313C131.5,146.163,131.704,146.196,131.768,146.303z"/>
					<path fill="#EA8D70" d="M133.058,145.713c0.054,0.11-0.059,0.245-0.252,0.301s-0.394,0.012-0.448-0.098
						s0.059-0.245,0.252-0.301S133.003,145.603,133.058,145.713z"/>
					<path fill="#EA8D70" d="M133.328,146.691c0.034,0.115-0.102,0.236-0.303,0.272c-0.202,0.035-0.393-0.029-0.427-0.145
						c-0.034-0.115,0.102-0.237,0.303-0.272C133.102,146.512,133.293,146.576,133.328,146.691z"/>
					<path fill="#EA8D70" d="M134.624,146.552c0.034,0.115-0.102,0.237-0.303,0.272c-0.202,0.035-0.393-0.029-0.427-0.144
						c-0.034-0.115,0.102-0.237,0.303-0.272C134.398,146.373,134.589,146.438,134.624,146.552z"/>
				</g>
				<path fill="#E7D1CA" d="M127.099,147.396c0.016-0.02,0.029-0.041,0.04-0.062c0.004-0.008,0.009-0.016,0.012-0.024
					c0.011-0.026,0.02-0.054,0.023-0.082c0.001-0.009,0-0.018,0.001-0.027c0.001-0.021,0.001-0.041-0.001-0.062
					c-0.001-0.013-0.003-0.025-0.005-0.038c-0.003-0.019-0.009-0.038-0.015-0.057c-0.007-0.022-0.017-0.045-0.027-0.068
					c-0.007-0.015-0.015-0.03-0.023-0.045c-0.01-0.018-0.021-0.035-0.034-0.053c-0.007-0.011-0.015-0.021-0.023-0.032
					c-0.048-0.063-0.107-0.123-0.176-0.181c-0.008-0.006-0.016-0.013-0.024-0.02c-0.024-0.019-0.048-0.037-0.075-0.055l0,0l0,0
					c-0.206-0.141-0.473-0.25-0.768-0.287c-0.988-0.123-1.361,0.234-1.397,0.477s-0.637,0.627-0.888,0.317
					c-0.148-0.183-0.002-0.272,0.143-0.315c-0.042,0.053-0.069,0.136,0.149,0.161c0.328,0.036,0.613-0.358,0.061-0.558
					c-0.524-0.19-1.939,0.166-2.215,0.774c-0.015,0.033-0.005,0.075-0.036,0.102c-0.499,0.435-0.107,0.942,1.754,1.329
					c0.572,0.119,1.115,0.063,1.529-0.014c0.119-0.022,0.227-0.049,0.325-0.081c0.147-0.047,0.269-0.103,0.361-0.166
					c0.123-0.083,0.193-0.178,0.198-0.278c0.002-0.038,0.001-0.074,0-0.108c-0.003-0.084-0.017-0.159-0.042-0.223
					c0.041,0,0.083-0.001,0.128-0.003c0.179-0.008,0.386-0.037,0.631-0.102c0.055-0.015,0.103-0.032,0.147-0.05
					c0.012-0.005,0.023-0.01,0.035-0.016c0.035-0.016,0.066-0.034,0.095-0.052c0.006-0.004,0.013-0.008,0.019-0.012
					c0.032-0.022,0.058-0.046,0.081-0.071C127.088,147.409,127.093,147.402,127.099,147.396z M125.02,147.746
					c0.113-0.07,0.234-0.075,0.385-0.063c0.024,0.046,0.013,0.094-0.038,0.135c-0.05-0.013-0.103-0.025-0.151-0.035l0,0h0
					c-0.005-0.001-0.01-0.002-0.015-0.003h0l0,0C125.1,147.759,125.02,147.746,125.02,147.746z M123.083,146.65L123.083,146.65
					c-0.034,0.009-0.066,0.018-0.098,0.027c-0.003,0.001-0.007,0.002-0.01,0.003c-0.029,0.009-0.058,0.018-0.086,0.028
					c-0.006,0.002-0.012,0.004-0.018,0.006c-0.025,0.009-0.051,0.018-0.075,0.028c-0.009,0.003-0.018,0.007-0.026,0.011
					c-0.022,0.009-0.043,0.018-0.064,0.028c-0.004,0.002-0.008,0.004-0.013,0.006c0.186-0.117,0.455-0.184,0.697-0.192
					C123.289,146.606,123.185,146.625,123.083,146.65z"/>
				<g>
					<path fill="#EAC086" d="M124.158,146.381c0,0-0.595,0.05-0.347,0.389c0.248,0.338,0.854-0.087,0.893-0.354
						c0.039-0.267,0.416-0.661,1.403-0.532c0.987,0.128,1.672,1.142,0.688,1.435s-1.362-0.071-1.688,0.151
						c0,0,0.585,0.104,0.562,0.188c-0.047,0.167-0.812,0.357-1.533,0.214c-0.337-0.067-0.829-0.16-1.414-0.469
						C121.404,146.708,123.792,145.827,124.158,146.381z"/>
					<path fill="#D59D63" d="M125.303,147.511c-0.005-0.001-0.011-0.002-0.016-0.003c-0.517,0.212-1.28,0.139-1.667-0.166
						c-0.182-0.143-0.19-0.357-0.124-0.536c0.09-0.244,0.356-0.375,0.653-0.435c-0.392-0.531-2.736,0.341-1.427,1.032
						c0.585,0.309,1.077,0.402,1.414,0.469c0.601,0.119,1.23,0.006,1.452-0.131C125.473,147.685,125.378,147.605,125.303,147.511z"
						/>
					<path fill="#DA9F59" d="M126.872,146.194c-0.004,0.001-0.008,0.003-0.013,0.004c0.082,0.152,0.049,0.38-0.086,0.499
						c-0.286,0.251-0.577,0.286-0.993,0.258c-0.711-0.048-0.701,0.3-0.969,0.648c0.212-0.038,0.297-0.132,0.297-0.132
						c0.326-0.222,0.704,0.141,1.688-0.151C127.486,147.114,127.353,146.555,126.872,146.194z"/>
					<path fill="#F6E4CA" d="M124.004,146.372c0,0-0.227,0.189,0.101,0.227c0.328,0.038,0.617-0.396,0.066-0.612
						c-0.551-0.216-2.223,0.062-2.371,0.815s0.517,1.412,1.851,1.604c1.334,0.193,2.396-0.167,2.422-0.604s-0.133-0.679-0.551-0.694
						c0,0-0.25,0.082-0.087,0.217c0.162,0.134,0.064,0.313-0.396,0.351c-0.46,0.039-1.86,0.192-2.379-0.572
						C122.139,146.338,123.736,145.993,124.004,146.372z"/>
					<path fill="#F6E4CA" d="M124.435,148.12c-0.786-0.032-1.506-0.089-2.069-0.555c-0.343-0.283-0.674-0.572-0.511-0.914
						c-0.024,0.048-0.043,0.098-0.054,0.15c-0.148,0.753,0.517,1.412,1.851,1.604c1.334,0.193,2.396-0.167,2.422-0.604
						c0.004-0.075,0.001-0.143-0.006-0.206C125.845,148.005,125.077,148.146,124.435,148.12z"/>
				</g>
			</g>
		</g>
		<ellipse opacity="0.65" fill="#B3B3B3" cx="148.568" cy="149.811" rx="3.732" ry="0.923"/>
		<path fill="#D0D0D0" d="M171.771,151.822c-1.947,0.832-32.598,0.811-35.542,0.806c-2.944,0.005-33.595,0.026-35.542-0.806
			c-2.045-0.875,1.386-2.544,3.162-1.844c1.7,0.669,29.692,0.651,32.38,0.648c2.688,0.003,30.681,0.021,32.38-0.648
			C170.386,149.278,173.816,150.947,171.771,151.822z"/>
	</g>
	<path fill="#FFBC95" d="M174.98,143.613c-0.668-0.625-1.789-0.97-2.729-0.728c-0.72,0.349-1.981,1.44-3.419,2.906
		c-3.023,3.085-0.505,3.166,0.892,2.452s3.7-2.943,3.753-2.759c0.053,0.184-1.378,3.647-2.254,4.165
		c-0.875,0.517-6.434,0.855-5.155,2.149c0.257,0.26,0.831,0.348,1.54,0.338c-0.734,0.195-1.212,0.469-1.095,0.889
		c0.105,0.377,0.944,0.475,1.97,0.449c-1.589,0.482-1.503,1.176-0.98,1.404c0.592,0.258,2.233-0.145,3.411-0.494
		c-1.556,0.473-3.628,1.166-2.082,1.811c1.856,0.775,5.147-1.375,5.661-1.656c0.514-0.28,3.428-4.651,4.105-5.677
		c0.678-1.027,0.161-1.557,0.161-1.557C177.78,145.165,176.162,145.045,174.98,143.613z"/>
	<path fill="#FFBC95" d="M171.297,154.27c0.539-0.168,0.91-0.299,0.91-0.299C172.031,154.047,171.696,154.148,171.297,154.27z"/>
	<path fill="#FFBC95" d="M103.771,152.939c1.405-1.156-4.09-2.063-4.908-2.667c-0.818-0.604-1.885-4.196-1.814-4.374
		s2.134,2.276,3.45,3.129s3.83,1.033,1.138-2.347c-1.382-1.735-2.612-3.026-3.263-3.338c0.086,0.034,0.019-0.019-0.147-0.11
		c-1.288-0.13-2.472,0.082-3.604,0.488c-1.189,2.221-1.742,1.282-3.015,3.446c0,0-0.569,0.475,0,1.565
		c0.569,1.091,3.019,5.738,3.501,6.07c0.482,0.332,3.535,2.809,5.461,2.229c1.604-0.482-0.387-1.385-1.885-2.015
		c1.136,0.468,2.728,1.038,3.343,0.841c0.542-0.173,0.699-0.854-0.833-1.496c1.018,0.13,1.862,0.117,2.006-0.246
		c0.16-0.405-0.287-0.727-0.997-0.996C102.909,153.2,103.489,153.172,103.771,152.939z"/>
	<polygon fill="#FFE9E2" points="134.214,122.438 132.079,122.438 132.079,110.752 133.607,110.752 	"/>
	<ellipse fill="#FFE9E2" cx="136.211" cy="113.072" rx="1.001" ry="1.138"/>
	<ellipse fill="#FFE9E2" cx="136.211" cy="119" rx="1.001" ry="1.138"/>
	<g>
		<path fill="#847877" d="M124.162,119.284c-0.122,0-0.235-0.079-0.272-0.203c-0.287-0.955-0.661-2.047-0.882-2.52
			c-0.222,0.424-0.571,1.403-0.826,2.258c-0.044,0.15-0.205,0.237-0.354,0.192c-0.151-0.045-0.236-0.204-0.191-0.354
			c0.792-2.665,1.152-2.772,1.288-2.813c0.092-0.028,0.255,0.007,0.329,0.069c0.325,0.274,0.879,2,1.18,3.004
			c0.045,0.151-0.04,0.309-0.19,0.354C124.216,119.28,124.188,119.284,124.162,119.284z"/>
	</g>
	<polygon fill="#FFF8F6" points="119.348,118.431 119.653,122.746 127.267,122.319 126.995,117.862 	"/>
	<g>
		<g>
			
				<ellipse transform="matrix(0.9439 -0.3301 0.3301 0.9439 -59.2714 56.5084)" fill="#FF3E4A" cx="136.733" cy="202.757" rx="29.144" ry="21.424"/>
			
				<ellipse transform="matrix(0.9439 -0.3301 0.3301 0.9439 -59.2705 56.5072)" fill="#FAF1F2" cx="136.733" cy="202.757" rx="26.003" ry="19.115"/>
			<g>
				<path fill="#FF3E4A" d="M121.443,202.684c-0.503,0.232-0.991,0.428-1.461,0.585s-0.783,0.23-0.94,0.22
					c-0.157-0.01-0.256-0.077-0.297-0.198l-2.583-7.709c-0.071-0.212-0.015-0.396,0.166-0.556c0.181-0.16,0.564-0.338,1.148-0.533
					l4.511-1.512c0.17-0.058,0.357,0.221,0.563,0.832c0.205,0.612,0.323,1.092,0.354,1.438c0.03,0.346-0.016,0.539-0.138,0.58
					l-2.51,0.706l0.277,0.827c1.062-0.41,1.776-0.676,2.14-0.799c0.122-0.04,0.227-0.003,0.314,0.111
					c0.088,0.114,0.193,0.355,0.318,0.725c0.123,0.369,0.201,0.736,0.232,1.1c0.032,0.363-0.025,0.57-0.171,0.618l-2.043,0.604
					l0.815,2.432C122.179,202.275,121.947,202.453,121.443,202.684z"/>
				<path fill="#FF3E4A" d="M128.93,200.121c-0.201,0.166-0.602,0.352-1.201,0.552c-0.601,0.202-1.12,0.313-1.557,0.339
					c-0.438,0.025-0.686-0.048-0.743-0.218c-0.065-0.195-0.12-1.558-0.167-4.09c-0.046-2.532-0.075-3.989-0.085-4.374
					c0.004-0.118,0.302-0.316,0.89-0.589c0.59-0.274,1.235-0.528,1.937-0.765c0.7-0.234,1.129-0.241,1.283-0.023
					c3.237,4.578,4.871,6.908,4.897,6.988c0.027,0.081,0.006,0.179-0.064,0.292c-0.167,0.255-0.588,0.495-1.26,0.72
					c-1.435,0.481-2.226,0.558-2.372,0.227l-0.35-0.762l-1.167,0.392l0.167,0.701C129.2,199.751,129.131,199.955,128.93,200.121z
					 M129.107,196.193l-0.916-2.127l-0.267,0.089l0.526,2.258L129.107,196.193z"/>
				<path fill="#FF3E4A" d="M140.739,195.746c-0.183,0.26-0.473,0.521-0.867,0.783c-0.395,0.262-0.935,0.51-1.619,0.738
					c-0.686,0.23-1.355,0.391-2.009,0.484c-0.654,0.094-1.138,0.115-1.453,0.067c-0.313-0.048-0.492-0.138-0.536-0.268
					c-0.152-0.454-0.246-0.947-0.28-1.481s0.038-0.831,0.216-0.891c0.032-0.011,0.405-0.014,1.119-0.01s1.233-0.049,1.557-0.157
					s0.523-0.213,0.598-0.313c0.074-0.102,0.089-0.217,0.045-0.348c-0.043-0.13-0.17-0.215-0.383-0.258
					c-0.212-0.041-0.465-0.055-0.758-0.043c-0.294,0.012-0.621-0.001-0.982-0.043c-0.361-0.041-0.705-0.105-1.032-0.195
					c-0.327-0.088-0.635-0.267-0.923-0.535c-0.289-0.27-0.503-0.614-0.645-1.035c-0.604-1.8,0.169-3.061,2.318-3.78
					c0.802-0.269,1.513-0.45,2.13-0.544c0.617-0.095,1.067-0.118,1.348-0.072c0.281,0.045,0.442,0.129,0.483,0.25
					c0.141,0.421,0.193,0.908,0.158,1.461c-0.036,0.554-0.147,0.861-0.333,0.924c-0.032,0.011-0.15,0.009-0.353-0.004
					c-0.614-0.056-1.097-0.024-1.449,0.094c-0.353,0.119-0.581,0.23-0.685,0.338s-0.134,0.228-0.089,0.36
					c0.045,0.135,0.172,0.214,0.378,0.239c0.206,0.025,0.453,0.029,0.74,0.01c0.287-0.021,0.609-0.012,0.969,0.026
					c0.359,0.037,0.705,0.106,1.037,0.206c0.331,0.102,0.645,0.297,0.939,0.586c0.295,0.288,0.521,0.664,0.676,1.126
					c0.163,0.486,0.185,0.97,0.066,1.452C141.05,195.209,140.922,195.486,140.739,195.746z"/>
				<path fill="#FF3E4A" d="M147.066,194.105c-0.48,0.221-0.971,0.414-1.47,0.58c-0.498,0.168-0.821,0.252-0.971,0.25
					c-0.148,0.002-0.241-0.051-0.276-0.157l-1.751-5.229l-1.691,0.567c-0.089,0.029-0.204-0.059-0.345-0.264
					c-0.141-0.205-0.288-0.533-0.438-0.982c-0.151-0.45-0.238-0.872-0.262-1.266c-0.023-0.394,0.046-0.618,0.208-0.672l6.578-2.205
					c0.122-0.041,0.243,0.047,0.363,0.258c0.121,0.213,0.254,0.533,0.398,0.963c0.143,0.43,0.234,0.851,0.273,1.261
					c0.039,0.411-0.019,0.643-0.173,0.694l-1.52,0.51l1.752,5.228C147.773,193.732,147.547,193.886,147.066,194.105z"/>
				<path fill="#FF3E4A" d="M124.345,217.943c-0.504,0.23-0.992,0.426-1.462,0.582c-0.47,0.158-0.783,0.232-0.94,0.223
					c-0.157-0.012-0.256-0.078-0.297-0.199l-2.582-7.71c-0.072-0.21-0.016-0.396,0.165-0.556c0.182-0.159,0.563-0.338,1.147-0.533
					l4.511-1.512c0.171-0.057,0.358,0.221,0.563,0.833c0.205,0.612,0.322,1.091,0.353,1.437c0.03,0.347-0.015,0.54-0.137,0.58
					l-2.509,0.707l0.277,0.826c1.062-0.41,1.775-0.676,2.139-0.799c0.121-0.04,0.227-0.004,0.315,0.111
					c0.087,0.115,0.193,0.357,0.316,0.726c0.124,0.368,0.203,0.735,0.234,1.099c0.031,0.364-0.025,0.57-0.171,0.619l-2.043,0.604
					l0.814,2.432C125.08,217.533,124.849,217.711,124.345,217.943z"/>
				<path fill="#FF3E4A" d="M133.038,215.246c-0.674,0.225-1.271,0.356-1.796,0.392c-0.525,0.036-1.044-0.039-1.558-0.228
					c-1.034-0.366-1.854-1.458-2.463-3.274c-0.255-0.761-0.366-1.464-0.333-2.105c0.032-0.642,0.192-1.196,0.478-1.661
					c0.562-0.91,1.462-1.572,2.703-1.987c0.64-0.216,1.216-0.345,1.729-0.39c0.512-0.046,1.029,0.011,1.55,0.169
					c1.058,0.332,1.877,1.364,2.459,3.099c0.521,1.557,0.521,2.832-0.002,3.829C135.28,214.084,134.359,214.803,133.038,215.246z
					 M131.937,213.295c0.137,0.085,0.29,0.099,0.461,0.042c0.17-0.058,0.284-0.161,0.342-0.311c0.058-0.149,0.054-0.429-0.01-0.836
					c-0.065-0.406-0.211-0.954-0.443-1.644c-0.231-0.689-0.441-1.209-0.63-1.561c-0.191-0.352-0.353-0.566-0.488-0.648
					c-0.135-0.08-0.288-0.092-0.458-0.035c-0.171,0.057-0.285,0.158-0.344,0.305c-0.06,0.146-0.06,0.416,0.001,0.811
					c0.061,0.396,0.206,0.937,0.436,1.626c0.231,0.688,0.444,1.216,0.638,1.579C131.635,212.986,131.8,213.211,131.937,213.295z"/>
				<path fill="#FF3E4A" d="M142.229,212.166c-0.672,0.225-1.271,0.355-1.795,0.392s-1.043-0.04-1.558-0.229
					c-1.032-0.365-1.853-1.457-2.462-3.273c-0.255-0.761-0.366-1.464-0.333-2.105c0.033-0.642,0.192-1.196,0.478-1.661
					c0.561-0.91,1.462-1.572,2.703-1.988c0.64-0.215,1.217-0.345,1.729-0.389c0.512-0.046,1.029,0.011,1.552,0.169
					c1.058,0.332,1.877,1.364,2.458,3.099c0.521,1.557,0.521,2.833-0.001,3.828C144.474,211.004,143.551,211.723,142.229,212.166z
					 M141.13,210.215c0.136,0.085,0.291,0.1,0.46,0.042c0.17-0.058,0.284-0.161,0.342-0.311s0.055-0.429-0.009-0.836
					c-0.064-0.406-0.212-0.954-0.443-1.644s-0.44-1.209-0.63-1.561c-0.19-0.352-0.353-0.566-0.487-0.648
					c-0.137-0.08-0.289-0.092-0.459-0.035c-0.17,0.058-0.285,0.158-0.344,0.305c-0.059,0.146-0.059,0.416,0.001,0.811
					s0.206,0.938,0.437,1.627c0.23,0.688,0.443,1.215,0.637,1.578C140.829,209.905,140.994,210.131,141.13,210.215z"/>
				<path fill="#FF3E4A" d="M151.155,209.053l-2.87,0.963c-0.397,0.133-0.674,0.193-0.831,0.184c-0.156-0.011-0.257-0.081-0.3-0.211
					l-2.571-7.673c-0.071-0.212-0.031-0.393,0.115-0.546c0.147-0.152,0.439-0.303,0.877-0.449l2.736-0.917
					c1.557-0.521,2.733-0.575,3.53-0.161s1.466,1.428,2.006,3.041c0.54,1.611,0.611,2.85,0.215,3.708
					C153.664,207.85,152.695,208.537,151.155,209.053z M148.773,202.264c-0.194,0.066-0.319,0.125-0.373,0.18l1.646,4.913
					l0.479-0.106c0.243-0.082,0.362-0.338,0.356-0.77c-0.004-0.431-0.166-1.124-0.487-2.082c-0.321-0.956-0.6-1.574-0.838-1.855
					C149.317,202.262,149.056,202.17,148.773,202.264z"/>
				<path fill="#FF3E4A" d="M153.825,198.455c0.454-0.211,0.995-0.422,1.628-0.633c0.633-0.213,0.98-0.226,1.043-0.039
					c0.078,0.234,0.66,2.213,1.744,5.936c0.059,0.205-0.024,0.436-0.255,0.693c-0.229,0.256-0.603,0.473-1.121,0.646
					c-0.706,0.236-1.139,0.169-1.299-0.201l-2.361-5.957C153.166,198.813,153.374,198.666,153.825,198.455z M159.072,207.232
					c-0.209,0.246-0.552,0.449-1.026,0.607c-0.475,0.159-0.86,0.211-1.159,0.152c-0.299-0.058-0.523-0.309-0.673-0.755
					c-0.244-0.729,0.128-1.261,1.117-1.592s1.604-0.132,1.85,0.598C159.32,206.656,159.283,206.986,159.072,207.232z"/>
			</g>
		</g>
		<path opacity="0.32" fill="#A56350" d="M135.007,208.36c-8.651-3.45-14.663-9.535-18.837-16.962
			c-5.771,5.995-8.294,13.539-5.941,20.265c3.796,10.855,18.845,15.469,33.613,10.304c6.22-2.175,11.391-5.74,15.018-9.947
			C150.877,212.475,142.859,211.492,135.007,208.36z"/>
	</g>
	<g>
		<polygon fill="#CDC8CE" points="146.215,123.217 151.217,126.104 149.459,134.823 148.5,134.702 150.405,126.693 145.088,124.243 
					"/>
		<polygon fill="#E4E2E5" points="145.036,132.562 144.531,134.795 152.498,135.103 152.35,132.894 		"/>
		<path fill="#CDC9CF" d="M148.511,135.006c-0.043-0.064-0.081-0.132-0.128-0.194c-0.426-0.551-0.651-1.296-0.727-2.063
			l-2.283-0.104l-0.505,2.233l3.646,0.141C148.514,135.015,148.512,135.011,148.511,135.006z"/>
		<polygon fill="#F74A3C" points="144.51,135.772 146.872,149.902 150.179,149.902 152.498,136.202 		"/>
		<path opacity="0.85" fill="#D9665A" d="M150.021,147.333c-1.751-1.005-2.719-3.025-3.192-4.978
			c-0.13-0.539-0.251-1.09-0.325-1.641c-0.098-0.736-0.207-1.471-0.276-2.21c-0.011-0.124-0.2-1.613-0.036-0.503
			c-0.066-0.448-0.078-0.892-0.063-1.331l-1.095-0.062l2.016,12.614h2.822l0.295-1.823
			C150.12,147.374,150.069,147.361,150.021,147.333z"/>
		<path fill="#C24A3C" d="M145.935,137.667c0.541,0.024,1.106,0.081,1.75,0.173c1.522,0.218,3.024,0.018,4.482,0.318l0.331-1.957
			l-7.988-0.43l0.293,1.755C145.17,137.521,145.583,137.546,145.935,137.667z"/>
		<path opacity="0.85" fill="#C24A3C" d="M146.533,146.688c1.527,0.353,2.771,0.628,4.188,0.013l0.92-5.433
			c-0.263-0.433-0.585-0.763-1.021-0.83c-0.95-0.146-1.9,0.002-2.851,0.025c-0.47,0.012-1.269,0.063-1.572-0.424
			c-0.424-0.682-0.573-1.235-1.212-1.426l1.344,8.037C146.396,146.662,146.464,146.672,146.533,146.688z"/>
		<polygon fill="#CDC8CE" points="143.221,133.821 143.823,136.76 153.314,137.146 153.916,134.484 		"/>
		<path opacity="0.75" fill="#CDC8CE" d="M148.254,136.006c-1.139-0.197-2.049-0.91-2.655-1.844l-1.83-0.113l0.523,2.534
			l8.261,0.333C152.553,136.917,149.321,136.19,148.254,136.006z"/>
	</g>
</g>
<path fill="#EFEFEC" d="M223.105,83.032c0,0-18.46,4.956-25.026,8.301l6.628,17.633"/>
<polyline fill="#E88D3B" points="209.516,220.222 202.852,225.117 217.098,251.267 "/>
</svg>
